<?xml version="1.0" standalone="no"?>
<!DOCTYPE svg PUBLIC "-//W3C//DTD SVG 20010904//EN"
 "http://www.w3.org/TR/2001/REC-SVG-20010904/DTD/svg10.dtd">
<svg version="1.0" xmlns="http://www.w3.org/2000/svg"
 width="479.000000pt" height="163.000000pt" viewBox="0 0 479.000000 163.000000"
 preserveAspectRatio="xMidYMid meet">

<g transform="translate(0.000000,163.000000) scale(0.100000,-0.100000)"
fill="#000000" stroke="none">
<path d="M3200 825 l0 -515 640 0 640 0 0 515 0 515 -640 0 -640 0 0 -515z"/>
<path d="M470 805 l0 -495 550 0 550 0 0 495 0 495 -550 0 -550 0 0 -495z"/>
<path d="M1840 795 l0 -505 590 0 590 0 0 505 0 505 -590 0 -590 0 0 -505z"/>
</g>
</svg>
